<?xml version="1.0" encoding="UTF-8"?>
<svg id="Layer_1" xmlns="http://www.w3.org/2000/svg" version="1.1" viewBox="0 0 31.88 32">
  <!-- Generator: Adobe Illustrator 30.1.0, SVG Export Plug-In . SVG Version: 2.1.1 Build 136)  -->
  <path d="M15.89,3.57c-6.86,0-12.41,5.56-12.41,12.41s5.56,12.41,12.41,12.41,12.41-5.56,12.41-12.41S22.74,3.57,15.89,3.57ZM15.89,7.45c1.5,0,2.72,1.22,2.72,2.72s-1.22,2.72-2.72,2.72-2.72-1.22-2.72-2.72,1.22-2.72,2.72-2.72ZM15.89,24.51c-4.71,0-8.53-3.82-8.53-8.53,0-.79.11-1.56.31-2.28.28-.03.57-.04.85-.04,3.26,0,6.07,1.91,7.37,4.67,1.3-2.76,4.11-4.67,7.37-4.67.29,0,.57.01.85.04.2.73.31,1.49.31,2.28,0,4.71-3.82,8.53-8.53,8.53h0Z"/>
</svg>