<?xml version="1.0" encoding="UTF-8"?>
<svg id="Capa_1" data-name="Capa 1" xmlns="http://www.w3.org/2000/svg" viewBox="0 0 1350 238">
  <path d="M408.31,110.32c-21.35-3.47-36.49-6.63-36.49-16.3s9.46-13.78,27.66-13.78,26.19,4.94,28.39,16.2h20.09c-1.58-21.35-19.67-33.23-48.59-33.23s-47.74,12.41-47.74,31.55c0,16.93,15.04,27.45,44.69,31.55,20.93,2.73,32.92,8.1,32.92,17.25s-9.99,14.09-28.81,14.09c-19.77,0-30.71-5.99-32.92-18.4h-19.77c1.68,23.45,20.19,35.55,52.58,35.55,30.18,0,48.9-11.88,48.9-31.02,0-17.56-14.2-29.13-40.91-33.44ZM1291.26,114.11v15.98h37.44c-1.05,14.83-16.2,27.13-35.23,27.13-24.29,0-39.02-13.04-39.02-36.6,0-24.82,16.2-39.23,41.01-39.23,15.67,0,25.24,4,30.71,15.77h20.72c-5.57-21.77-24.5-33.97-51.42-33.97-35.33,0-60.78,21.87-60.78,57.42s22.82,54.16,57.63,54.16c37.02,0,55.42-22.61,55.42-49.95v-10.73h-56.47ZM1117.01,129.25l17.67-41.54h1.05l17.67,41.54h-36.39ZM1146.24,64.68h-22.08l-46.8,108.63h21.03l11.57-27.45h50.48l11.67,27.45h20.82l-46.69-108.63ZM945.59,82.56h41.54v90.76h19.46v-90.76h41.54v-17.88h-102.53v17.88ZM886.07,118.53c0,22.4-11.46,36.91-34.28,36.91h-29.76v-72.88h29.76c22.4,0,34.28,13.46,34.28,35.97ZM852.52,64.68h-49.95v108.63h49.95c33.34,0,53.42-21.45,53.42-54.47s-20.19-54.16-53.42-54.16ZM674.48,126.83h59.21v-17.25h-59.21v-27.45h67.51v-17.46h-86.55v108.63h88.02v-17.46h-68.99v-29.03ZM527.36,126.83h59.1v-17.25h-59.1v-27.45h67.51v-17.46h-86.55v108.63h88.02v-17.46h-68.99v-29.03Z"/>
  <path d="M119,1.84C54.3,1.84,1.84,54.3,1.84,119s52.45,117.16,117.16,117.16,117.16-52.45,117.16-117.16S183.7,1.84,119,1.84ZM119,38.45c14.15,0,25.63,11.47,25.63,25.63s-11.47,25.63-25.63,25.63-25.63-11.47-25.63-25.63,11.47-25.63,25.63-25.63ZM119,199.55c-44.48,0-80.55-36.06-80.55-80.55,0-7.46,1.02-14.69,2.92-21.55,2.65-.28,5.34-.42,8.06-.42,30.74,0,57.26,18.04,69.56,44.11,12.3-26.07,38.82-44.11,69.56-44.11,2.72,0,5.41.14,8.06.42,1.9,6.86,2.92,14.08,2.92,21.55,0,44.48-36.06,80.55-80.55,80.55Z"/>
</svg>